<?xml version="1.0" encoding="utf-8"?>
<!-- Generator: Adobe Illustrator 15.0.2, SVG Export Plug-In . SVG Version: 6.00 Build 0)  -->
<!DOCTYPE svg PUBLIC "-//W3C//DTD SVG 1.1//EN" "http://www.w3.org/Graphics/SVG/1.1/DTD/svg11.dtd">
<svg version="1.1" id="Layer_1" xmlns="http://www.w3.org/2000/svg" xmlns:xlink="http://www.w3.org/1999/xlink" x="0px" y="0px"
	 width="269.7px" height="65.339px" viewBox="0 0 269.7 65.339" enable-background="new 0 0 269.7 65.339" xml:space="preserve">
<g>
	<defs>
		<rect id="SVGID_1_" width="269.7" height="65.339"/>
	</defs>
	<clipPath id="SVGID_2_">
		<use xlink:href="#SVGID_1_"  overflow="visible"/>
	</clipPath>
	<path clip-path="url(#SVGID_2_)" fill="#A9ABA9" d="M224.167,40.686c-1.428,6.789-6.532,10.463-12.763,10.463
		c-5.715,0-9.647-3.367-11.383-6.533c-1.176-2.145-1.582-3.215-1.582-11.946c0-8.728,0.406-9.8,1.582-11.946
		c1.735-3.165,5.668-6.532,11.383-6.532c6.893,0,11.64,4.848,12.763,10.77h-5.819c-0.866-2.808-3.47-5.258-6.943-5.258
		c-2.601,0-4.49,1.224-5.614,2.656c-1.431,1.836-1.839,2.858-1.839,10.31c0,7.455,0.408,8.475,1.839,10.313
		c1.124,1.429,3.014,2.654,5.614,2.654c3.064,0,5.412-1.684,6.943-4.951H224.167z"/>
	<path clip-path="url(#SVGID_2_)" fill="#A9ABA9" d="M229.963,20.724c1.736-3.165,5.665-6.532,11.386-6.532
		c5.718,0,9.649,3.367,11.383,6.532c1.175,2.146,1.582,3.218,1.582,11.946c0,8.731-0.407,9.801-1.582,11.946
		c-1.733,3.166-5.665,6.533-11.383,6.533c-5.721,0-9.649-3.367-11.386-6.533c-1.174-2.145-1.581-3.215-1.581-11.946
		C228.382,23.941,228.789,22.87,229.963,20.724 M235.732,42.982c1.124,1.429,3.011,2.654,5.616,2.654
		c2.603,0,4.491-1.226,5.615-2.654c1.432-1.838,1.839-2.859,1.839-10.313c0-7.452-0.407-8.474-1.839-10.31
		c-1.124-1.432-3.013-2.656-5.615-2.656c-2.605,0-4.492,1.224-5.616,2.656c-1.428,1.836-1.836,2.858-1.836,10.31
		C233.896,40.123,234.305,41.145,235.732,42.982"/>
	<polygon clip-path="url(#SVGID_2_)" fill="#EFEDE1" points="34.407,9.285 41.108,9.285 60.396,42.522 60.527,42.522 60.527,9.285 
		67.621,9.285 67.621,56.055 60.922,56.055 41.633,22.816 41.502,22.816 41.502,56.055 34.407,56.055 	"/>
	<polygon clip-path="url(#SVGID_2_)" fill="#EFEDE1" points="84.488,15.592 72.609,15.592 72.609,9.285 103.46,9.285 103.46,15.592 
		91.583,15.592 91.583,56.055 84.488,56.055 	"/>
	<path clip-path="url(#SVGID_2_)" fill="#EFEDE1" d="M143.033,9.285h16.398c3.941,0,7.029,0.918,9.525,3.086
		c2.629,2.233,4.663,5.782,4.663,9.985c0,6.043-3.415,10.969-9.063,12.94l10.837,20.758h-8.407l-9.656-19.969h-7.202v19.969h-7.095
		V9.285z M150.128,29.779h8.843c5.322,0,7.949-3.482,7.949-7.423c0-2.431-0.92-4.27-2.363-5.319
		c-1.316-0.987-2.761-1.446-5.19-1.446h-9.238V29.779z"/>
	<path clip-path="url(#SVGID_2_)" fill="#EFEDE1" d="M28.025,15.983V9.285H3.771H3.045H2.868v0.005
		c-1.538,0.028-2.779,1.245-2.855,2.772H0v38.155v2.214v0.697v0.001c0,1.618,1.308,2.925,2.923,2.925
		c0.011,0,0.02-0.004,0.033-0.004v0.004h1.31H6.32h21.705v-6.699H7.094v-13.73h17.579v-6.307H7.094V15.983H28.025z"/>
	<path clip-path="url(#SVGID_2_)" fill="#EFEDE1" d="M136.777,15.983V9.285h-24.256h-0.725h-0.178v0.005
		c-1.537,0.028-2.778,1.245-2.854,2.772h-0.014v38.155v2.214v0.697h0.001c0,0.001-0.001,0.001-0.001,0.001
		c0,1.618,1.309,2.925,2.924,2.925c0.01,0,0.021-0.004,0.032-0.004v0.004h1.31h2.053h21.708v-6.699h-20.932v-13.73h17.579v-6.307
		h-17.579V15.983H136.777z"/>
	<path clip-path="url(#SVGID_2_)" fill="#545456" d="M254.895,65.339h-57.15c-3.917,0-7.604-1.511-10.391-4.259
		c-1.004-0.99-1.018-2.605-0.026-3.61c0.991-1.003,2.606-1.013,3.608-0.024c1.826,1.798,4.242,2.788,6.809,2.788h57.15
		c5.348,0,9.699-4.35,9.699-9.698V14.804c0-5.348-4.352-9.698-9.699-9.698h-57.15c-5.349,0-9.7,4.35-9.7,9.698v14.882
		c0,1.41-1.143,2.553-2.552,2.553c-1.411,0-2.553-1.143-2.553-2.553V14.804C182.939,6.641,189.581,0,197.744,0h57.15
		c8.164,0,14.806,6.641,14.806,14.804v35.731C269.7,58.698,263.059,65.339,254.895,65.339"/>
	<path clip-path="url(#SVGID_2_)" fill="#E13E25" d="M191.681,44.961c0,3.416-2.771,6.188-6.188,6.188
		c-3.416,0-6.189-2.771-6.189-6.188s2.773-6.187,6.189-6.187C188.91,38.774,191.681,41.545,191.681,44.961"/>
</g>
</svg>
